<mxfile host="app.diagrams.net" modified="2024-03-06T23:53:46.332Z" agent="Mozilla/5.0 (Windows NT 10.0; Win64; x64) AppleWebKit/537.36 (KHTML, like Gecko) Chrome/122.0.0.0 Safari/537.36" etag="yhs7xy9YQf0XWoCrDyLk" version="24.0.1" type="google">
  <diagram name="Page-1" id="KFPgroD9lg_NOERfWNBW">
    <mxGraphModel grid="1" page="1" gridSize="10" guides="1" tooltips="1" connect="1" arrows="1" fold="1" pageScale="1" pageWidth="1169" pageHeight="827" math="0" shadow="0">
      <root>
        <mxCell id="0" />
        <mxCell id="1" parent="0" />
        <mxCell id="fDQkhAqRYMcvqKrSHLIY-1" style="edgeStyle=orthogonalEdgeStyle;rounded=0;orthogonalLoop=1;jettySize=auto;html=1;exitX=0.5;exitY=1;exitDx=0;exitDy=0;entryX=0.5;entryY=0;entryDx=0;entryDy=0;" edge="1" parent="1" source="fDQkhAqRYMcvqKrSHLIY-2" target="fDQkhAqRYMcvqKrSHLIY-9">
          <mxGeometry relative="1" as="geometry" />
        </mxCell>
        <mxCell id="fDQkhAqRYMcvqKrSHLIY-2" value="Notification Received" style="rounded=1;arcSize=10;whiteSpace=wrap;html=1;align=center;" vertex="1" parent="1">
          <mxGeometry x="460" y="135" width="100" height="40" as="geometry" />
        </mxCell>
        <mxCell id="fDQkhAqRYMcvqKrSHLIY-25" style="edgeStyle=orthogonalEdgeStyle;rounded=0;orthogonalLoop=1;jettySize=auto;html=1;exitX=0.5;exitY=1;exitDx=0;exitDy=0;entryX=0;entryY=0.5;entryDx=0;entryDy=0;" edge="1" parent="1" source="fDQkhAqRYMcvqKrSHLIY-3" target="fDQkhAqRYMcvqKrSHLIY-24">
          <mxGeometry relative="1" as="geometry" />
        </mxCell>
        <mxCell id="fDQkhAqRYMcvqKrSHLIY-3" value="Assign task to staff" style="rounded=1;arcSize=10;whiteSpace=wrap;html=1;align=center;" vertex="1" parent="1">
          <mxGeometry x="530" y="335" width="100" height="40" as="geometry" />
        </mxCell>
        <mxCell id="fDQkhAqRYMcvqKrSHLIY-4" style="edgeStyle=orthogonalEdgeStyle;rounded=0;orthogonalLoop=1;jettySize=auto;html=1;exitX=0.5;exitY=1;exitDx=0;exitDy=0;entryX=0.5;entryY=0;entryDx=0;entryDy=0;" edge="1" parent="1" source="fDQkhAqRYMcvqKrSHLIY-5" target="fDQkhAqRYMcvqKrSHLIY-12">
          <mxGeometry relative="1" as="geometry" />
        </mxCell>
        <mxCell id="fDQkhAqRYMcvqKrSHLIY-5" value="Refuse request" style="rounded=1;arcSize=10;whiteSpace=wrap;html=1;align=center;" vertex="1" parent="1">
          <mxGeometry x="380" y="335" width="100" height="40" as="geometry" />
        </mxCell>
        <mxCell id="fDQkhAqRYMcvqKrSHLIY-6" style="edgeStyle=orthogonalEdgeStyle;rounded=0;orthogonalLoop=1;jettySize=auto;html=1;exitX=0;exitY=0.5;exitDx=0;exitDy=0;exitPerimeter=0;" edge="1" parent="1" source="fDQkhAqRYMcvqKrSHLIY-8" target="fDQkhAqRYMcvqKrSHLIY-5">
          <mxGeometry relative="1" as="geometry" />
        </mxCell>
        <mxCell id="fDQkhAqRYMcvqKrSHLIY-7" style="edgeStyle=orthogonalEdgeStyle;rounded=0;orthogonalLoop=1;jettySize=auto;html=1;exitX=1;exitY=0.5;exitDx=0;exitDy=0;exitPerimeter=0;" edge="1" parent="1" source="fDQkhAqRYMcvqKrSHLIY-8" target="fDQkhAqRYMcvqKrSHLIY-3">
          <mxGeometry relative="1" as="geometry" />
        </mxCell>
        <mxCell id="fDQkhAqRYMcvqKrSHLIY-8" value="" style="strokeWidth=2;html=1;shape=mxgraph.flowchart.decision;whiteSpace=wrap;" vertex="1" parent="1">
          <mxGeometry x="490" y="255" width="40" height="40" as="geometry" />
        </mxCell>
        <mxCell id="fDQkhAqRYMcvqKrSHLIY-9" value="Approve?" style="rounded=1;arcSize=10;whiteSpace=wrap;html=1;align=center;" vertex="1" parent="1">
          <mxGeometry x="460" y="195" width="100" height="40" as="geometry" />
        </mxCell>
        <mxCell id="fDQkhAqRYMcvqKrSHLIY-10" style="edgeStyle=orthogonalEdgeStyle;rounded=0;orthogonalLoop=1;jettySize=auto;html=1;exitX=0.5;exitY=1;exitDx=0;exitDy=0;entryX=0.5;entryY=0;entryDx=0;entryDy=0;entryPerimeter=0;" edge="1" parent="1" source="fDQkhAqRYMcvqKrSHLIY-9" target="fDQkhAqRYMcvqKrSHLIY-8">
          <mxGeometry relative="1" as="geometry" />
        </mxCell>
        <mxCell id="fDQkhAqRYMcvqKrSHLIY-11" style="edgeStyle=orthogonalEdgeStyle;rounded=0;orthogonalLoop=1;jettySize=auto;html=1;exitX=0.5;exitY=1;exitDx=0;exitDy=0;entryX=0.5;entryY=0;entryDx=0;entryDy=0;" edge="1" parent="1" source="fDQkhAqRYMcvqKrSHLIY-12" target="fDQkhAqRYMcvqKrSHLIY-14">
          <mxGeometry relative="1" as="geometry" />
        </mxCell>
        <mxCell id="fDQkhAqRYMcvqKrSHLIY-12" value="Inform Guset" style="rounded=1;arcSize=10;whiteSpace=wrap;html=1;align=center;" vertex="1" parent="1">
          <mxGeometry x="380" y="395" width="100" height="40" as="geometry" />
        </mxCell>
        <mxCell id="fDQkhAqRYMcvqKrSHLIY-13" style="edgeStyle=orthogonalEdgeStyle;rounded=0;orthogonalLoop=1;jettySize=auto;html=1;exitX=0.5;exitY=1;exitDx=0;exitDy=0;entryX=0;entryY=0.5;entryDx=0;entryDy=0;" edge="1" parent="1" source="fDQkhAqRYMcvqKrSHLIY-14" target="fDQkhAqRYMcvqKrSHLIY-15">
          <mxGeometry relative="1" as="geometry" />
        </mxCell>
        <mxCell id="fDQkhAqRYMcvqKrSHLIY-14" value="Update as &quot;Refused&quot;" style="rounded=1;arcSize=10;whiteSpace=wrap;html=1;align=center;" vertex="1" parent="1">
          <mxGeometry x="380" y="455" width="100" height="40" as="geometry" />
        </mxCell>
        <mxCell id="fDQkhAqRYMcvqKrSHLIY-15" value="Update request status &quot;done&quot;" style="rounded=1;arcSize=10;whiteSpace=wrap;html=1;align=center;" vertex="1" parent="1">
          <mxGeometry x="460" y="540" width="100" height="40" as="geometry" />
        </mxCell>
        <mxCell id="fDQkhAqRYMcvqKrSHLIY-16" style="edgeStyle=orthogonalEdgeStyle;rounded=0;orthogonalLoop=1;jettySize=auto;html=1;exitX=0.5;exitY=1;exitDx=0;exitDy=0;entryX=1;entryY=0.5;entryDx=0;entryDy=0;" edge="1" parent="1" source="fDQkhAqRYMcvqKrSHLIY-17" target="fDQkhAqRYMcvqKrSHLIY-15">
          <mxGeometry relative="1" as="geometry" />
        </mxCell>
        <mxCell id="fDQkhAqRYMcvqKrSHLIY-17" value="Request guest feedback" style="rounded=1;arcSize=10;whiteSpace=wrap;html=1;align=center;" vertex="1" parent="1">
          <mxGeometry x="530" y="455" width="100" height="40" as="geometry" />
        </mxCell>
        <mxCell id="fDQkhAqRYMcvqKrSHLIY-18" value="No" style="text;html=1;align=center;verticalAlign=middle;whiteSpace=wrap;rounded=0;" vertex="1" parent="1">
          <mxGeometry x="410" y="245" width="60" height="30" as="geometry" />
        </mxCell>
        <mxCell id="fDQkhAqRYMcvqKrSHLIY-19" value="Yes" style="text;html=1;align=center;verticalAlign=middle;whiteSpace=wrap;rounded=0;" vertex="1" parent="1">
          <mxGeometry x="530" y="245" width="60" height="30" as="geometry" />
        </mxCell>
        <mxCell id="fDQkhAqRYMcvqKrSHLIY-21" value="&lt;font style=&quot;font-size: 18px;&quot;&gt;&lt;b&gt;Admin&lt;/b&gt;&lt;/font&gt;" style="text;html=1;align=center;verticalAlign=middle;whiteSpace=wrap;rounded=0;" vertex="1" parent="1">
          <mxGeometry x="400" y="105" width="60" height="30" as="geometry" />
        </mxCell>
        <mxCell id="fDQkhAqRYMcvqKrSHLIY-22" value="" style="endArrow=classic;html=1;rounded=0;exitX=0.5;exitY=1;exitDx=0;exitDy=0;" edge="1" parent="1" source="fDQkhAqRYMcvqKrSHLIY-15">
          <mxGeometry width="50" height="50" relative="1" as="geometry">
            <mxPoint x="510" y="440" as="sourcePoint" />
            <mxPoint x="510" y="620" as="targetPoint" />
          </mxGeometry>
        </mxCell>
        <mxCell id="fDQkhAqRYMcvqKrSHLIY-26" style="edgeStyle=orthogonalEdgeStyle;rounded=0;orthogonalLoop=1;jettySize=auto;html=1;exitX=0;exitY=0.75;exitDx=0;exitDy=0;entryX=0.5;entryY=0;entryDx=0;entryDy=0;" edge="1" parent="1" source="fDQkhAqRYMcvqKrSHLIY-24" target="fDQkhAqRYMcvqKrSHLIY-17">
          <mxGeometry relative="1" as="geometry" />
        </mxCell>
        <mxCell id="fDQkhAqRYMcvqKrSHLIY-24" value="Staff Section" style="rounded=0;whiteSpace=wrap;html=1;" vertex="1" parent="1">
          <mxGeometry x="650" y="385" width="120" height="60" as="geometry" />
        </mxCell>
      </root>
    </mxGraphModel>
  </diagram>
</mxfile>
